<svg xmlns="http://www.w3.org/2000/svg" viewBox="0 0 400 500" width="100%" height="100%" role="img">
  <rect width="400" height="500" fill="#F4EFE8"/>
  <path d="M318 84 C382 148 396 268 348 352 C300 436 176 462 100 410 C24 358 10 236 58 152 C106 68 254 20 318 84 Z" fill="#CBD6CF"/>
  <circle cx="330" cy="88" r="15" fill="#C9B89A"/>
  <rect x="182" y="208" width="36" height="52" fill="#8A5A3B"/>
  <circle cx="158" cy="140" r="15" fill="#243530"/>
  <circle cx="200" cy="174" r="44" fill="#8A5A3B"/>
  <path d="M153 170 a47 47 0 0 1 94 0 z" fill="#243530" transform="rotate(6 200 170)"/>
  <path d="M120 500 L120 292 C120 234 280 234 280 292 L280 500 Z" fill="#3F5E54"/>
  <path d="M182 240 L200 268 L218 240 Z" fill="#F4EFE8"/>
  <rect x="132" y="306" width="136" height="48" rx="24" fill="#335047"/>
  <circle cx="146" cy="330" r="13" fill="#8A5A3B"/>
  <circle cx="254" cy="330" r="13" fill="#8A5A3B"/>
  <rect x="228" y="384" width="32" height="10" rx="5" fill="#B9C6BF"/>
  <g transform="translate(58 500)">
    <path d="M0 0 C -2 -38 -14 -62 -32 -78" fill="none" stroke="#335047" stroke-width="6" stroke-linecap="round"/>
    <ellipse cx="-34" cy="-82" rx="22" ry="12" transform="rotate(-40 -34 -82)" fill="#3F5E54"/>
    <path d="M8 0 C 10 -42 20 -66 36 -84" fill="none" stroke="#335047" stroke-width="6" stroke-linecap="round"/>
    <ellipse cx="39" cy="-90" rx="21" ry="11" transform="rotate(40 39 -90)" fill="#B9C6BF"/>
    <path d="M2 0 C 2 -46 4 -70 6 -92" fill="none" stroke="#335047" stroke-width="5" stroke-linecap="round"/>
    <ellipse cx="7" cy="-100" rx="11" ry="20" fill="#3F5E54"/>
  </g>
  <g transform="translate(348 500) scale(-1 1)">
    <path d="M0 0 C -2 -34 -12 -56 -28 -70" fill="none" stroke="#335047" stroke-width="6" stroke-linecap="round"/>
    <ellipse cx="-30" cy="-74" rx="20" ry="11" transform="rotate(-40 -30 -74)" fill="#B9C6BF"/>
    <path d="M6 0 C 8 -38 16 -60 30 -76" fill="none" stroke="#335047" stroke-width="6" stroke-linecap="round"/>
    <ellipse cx="33" cy="-82" rx="20" ry="11" transform="rotate(40 33 -82)" fill="#3F5E54"/>
  </g>
</svg>
