<svg xmlns="http://www.w3.org/2000/svg" viewBox="0 0 400 400" width="100%" height="100%" role="img">
  <rect width="400" height="400" fill="#EAE2D4"/>
  <path d="M312 74 C376 128 392 232 348 308 C304 384 188 408 108 364 C28 320 8 216 52 140 C96 64 248 20 312 74 Z" fill="#FBF8F3"/>
  <g transform="translate(316 372) scale(1.2)">
    <path d="M0 0 C -4 -30 -20 -48 -38 -60" fill="none" stroke="#335047" stroke-width="5" stroke-linecap="round"/>
    <ellipse cx="-42" cy="-64" rx="20" ry="11" transform="rotate(-35 -42 -64)" fill="#3F5E54"/>
    <path d="M0 0 C 0 -40 2 -60 4 -78" fill="none" stroke="#335047" stroke-width="5" stroke-linecap="round"/>
    <ellipse cx="5" cy="-86" rx="11" ry="20" fill="#3F5E54"/>
    <path d="M0 0 C 4 -26 18 -42 34 -52" fill="none" stroke="#335047" stroke-width="5" stroke-linecap="round"/>
    <ellipse cx="38" cy="-56" rx="18" ry="10" transform="rotate(32 38 -56)" fill="#B9C6BF"/>
    <path d="M-26 0 h52 l-8 44 a10 10 0 0 1 -10 9 h-16 a10 10 0 0 1 -10 -9 z" fill="#C68B6A"/>
    <rect x="-30" y="-4" width="60" height="12" rx="6" fill="#8A5A3B"/>
  </g>
  <g transform="translate(70 400)">
    <path d="M0 0 C -2 -34 -12 -54 -28 -68" fill="none" stroke="#335047" stroke-width="5" stroke-linecap="round"/>
    <ellipse cx="-30" cy="-72" rx="20" ry="11" transform="rotate(-40 -30 -72)" fill="#3F5E54"/>
    <path d="M0 0 C 2 -36 10 -58 24 -76" fill="none" stroke="#335047" stroke-width="5" stroke-linecap="round"/>
    <ellipse cx="27" cy="-82" rx="19" ry="10" transform="rotate(40 27 -82)" fill="#B9C6BF"/>
  </g>
  <rect x="184" y="214" width="32" height="56" fill="#C68B6A"/>
  <circle cx="200" cy="182" r="46" fill="#C68B6A"/>
  <path d="M151 178 a49 49 0 0 1 98 0 z" fill="#243530" transform="rotate(-7 200 178)"/>
  <path d="M118 400 L118 306 C118 250 282 250 282 306 L282 400 Z" fill="#3F5E54"/>
  <path d="M182 254 L200 282 L218 254 Z" fill="#F4EFE8"/>
  <rect x="186" y="330" width="28" height="9" rx="4.5" fill="#B9C6BF"/>
</svg>
