<svg xmlns="http://www.w3.org/2000/svg" viewBox="0 0 800 500" width="100%" height="100%" role="img">
  <rect width="800" height="500" fill="#F4EFE8"/>
  <path d="M540 62 C668 82 740 186 722 292 C704 398 582 452 454 442 C326 432 232 360 242 250 C252 140 412 42 540 62 Z" fill="#EAE2D4"/>
  <ellipse cx="400" cy="432" rx="250" ry="28" fill="#FBF8F3"/>
  <circle cx="250" cy="192" r="30" fill="#C68B6A"/>
  <path d="M220 190 a31 31 0 0 1 62 0 z" fill="#C9B89A" transform="rotate(-6 250 190)"/>
  <rect x="204" y="224" width="92" height="132" rx="41" fill="#B9C6BF"/>
  <circle cx="550" cy="196" r="30" fill="#8A5A3B"/>
  <path d="M520 194 a31 31 0 0 1 62 0 z" fill="#243530" transform="rotate(6 550 194)"/>
  <rect x="504" y="228" width="92" height="128" rx="41" fill="#3F5E54"/>
  <path d="M372 244 c4 -8 -4 -14 0 -22" fill="none" stroke="#B9C6BF" stroke-width="4" stroke-linecap="round"/>
  <path d="M348 278 C332 280 332 300 348 302" fill="none" stroke="#3F5E54" stroke-width="6"/>
  <path d="M396 282 C412 278 418 268 420 258" fill="none" stroke="#3F5E54" stroke-width="8" stroke-linecap="round"/>
  <circle cx="372" cy="290" r="26" fill="#3F5E54"/>
  <circle cx="372" cy="260" r="7" fill="#3F5E54"/>
  <rect x="430" y="300" width="22" height="18" rx="6" fill="#FBF8F3"/>
  <circle cx="455" cy="308" r="5" fill="none" stroke="#FBF8F3" stroke-width="3"/>
  <g transform="translate(478 316)">
    <g transform="rotate(-14 -24 0)"><rect x="-35" y="-32" width="22" height="32" rx="4" fill="#FBF8F3" stroke="#C9B89A" stroke-width="2"/></g>
    <rect x="-11" y="-34" width="22" height="32" rx="4" fill="#FBF8F3" stroke="#C9B89A" stroke-width="2"/>
    <g transform="rotate(14 24 0)"><rect x="13" y="-32" width="22" height="32" rx="4" fill="#FBF8F3" stroke="#C9B89A" stroke-width="2"/></g>
    <circle cx="0" cy="-18" r="3.5" fill="#C68B6A"/>
  </g>
  <rect x="300" y="318" width="200" height="22" rx="11" fill="#C9B89A"/>
  <rect x="322" y="340" width="12" height="74" rx="4" fill="#8A5A3B"/>
  <rect x="466" y="340" width="12" height="74" rx="4" fill="#8A5A3B"/>
  <g transform="translate(120 434) scale(1.1)">
    <path d="M0 0 C -4 -30 -20 -48 -38 -60" fill="none" stroke="#335047" stroke-width="5" stroke-linecap="round"/>
    <ellipse cx="-42" cy="-64" rx="20" ry="11" transform="rotate(-35 -42 -64)" fill="#3F5E54"/>
    <path d="M0 0 C 0 -40 2 -60 4 -78" fill="none" stroke="#335047" stroke-width="5" stroke-linecap="round"/>
    <ellipse cx="5" cy="-86" rx="11" ry="20" fill="#3F5E54"/>
    <path d="M0 0 C 4 -26 18 -42 34 -52" fill="none" stroke="#335047" stroke-width="5" stroke-linecap="round"/>
    <ellipse cx="38" cy="-56" rx="18" ry="10" transform="rotate(32 38 -56)" fill="#B9C6BF"/>
    <path d="M-26 0 h52 l-8 44 a10 10 0 0 1 -10 9 h-16 a10 10 0 0 1 -10 -9 z" fill="#C68B6A"/>
    <rect x="-30" y="-4" width="60" height="12" rx="6" fill="#8A5A3B"/>
  </g>
</svg>
