<svg xmlns="http://www.w3.org/2000/svg" viewBox="0 0 800 500" width="100%" height="100%" role="img">
  <rect width="800" height="500" fill="#EAE2D4"/>
  <path d="M340 60 C468 76 548 180 532 286 C516 392 392 452 264 440 C136 428 58 350 70 242 C82 134 212 44 340 60 Z" fill="#CBD6CF"/>
  <ellipse cx="400" cy="444" rx="260" ry="30" fill="#FBF8F3"/>
  <ellipse cx="600" cy="252" rx="52" ry="44" fill="#C9B89A" opacity="0.3"/>
  <rect x="596" y="240" width="8" height="176" rx="4" fill="#243530"/>
  <ellipse cx="600" cy="416" rx="34" ry="10" fill="#243530"/>
  <path d="M566 192 L634 192 L648 244 L552 244 Z" fill="#C9B89A"/>
  <rect x="312" y="176" width="176" height="150" rx="56" fill="#3F5E54"/>
  <circle cx="444" cy="286" r="22" fill="#B9C6BF"/>
  <rect x="300" y="298" width="200" height="58" rx="20" fill="#335047"/>
  <rect x="286" y="250" width="46" height="106" rx="22" fill="#335047"/>
  <rect x="468" y="250" width="46" height="106" rx="22" fill="#335047"/>
  <rect x="316" y="356" width="14" height="30" rx="6" fill="#243530"/>
  <rect x="470" y="356" width="14" height="30" rx="6" fill="#243530"/>
  <rect x="284" y="252" width="52" height="86" rx="16" fill="#C9B89A"/>
  <path d="M292 342 v10 M304 342 v10 M316 342 v10 M328 342 v10" stroke="#8A5A3B" stroke-width="3" stroke-linecap="round"/>
  <g transform="translate(0 10)">
    <path d="M368 282 C382 272 396 272 400 280 C404 272 418 272 432 282 L432 298 C418 290 404 290 400 296 C396 290 382 290 368 298 Z" fill="#FBF8F3"/>
  </g>
  <rect x="522" y="398" width="64" height="14" rx="5" fill="#3F5E54"/>
  <rect x="528" y="384" width="52" height="14" rx="5" fill="#C68B6A"/>
  <rect x="540" y="362" width="26" height="22" rx="7" fill="#FBF8F3"/>
  <g transform="translate(152 436) scale(1.2)">
    <path d="M0 0 C -4 -30 -20 -48 -38 -60" fill="none" stroke="#335047" stroke-width="5" stroke-linecap="round"/>
    <ellipse cx="-42" cy="-64" rx="20" ry="11" transform="rotate(-35 -42 -64)" fill="#3F5E54"/>
    <path d="M0 0 C 0 -40 2 -60 4 -78" fill="none" stroke="#335047" stroke-width="5" stroke-linecap="round"/>
    <ellipse cx="5" cy="-86" rx="11" ry="20" fill="#3F5E54"/>
    <path d="M0 0 C 4 -26 18 -42 34 -52" fill="none" stroke="#335047" stroke-width="5" stroke-linecap="round"/>
    <ellipse cx="38" cy="-56" rx="18" ry="10" transform="rotate(32 38 -56)" fill="#B9C6BF"/>
    <path d="M-26 0 h52 l-8 44 a10 10 0 0 1 -10 9 h-16 a10 10 0 0 1 -10 -9 z" fill="#C68B6A"/>
    <rect x="-30" y="-4" width="60" height="12" rx="6" fill="#8A5A3B"/>
  </g>
</svg>
