<svg xmlns="http://www.w3.org/2000/svg" viewBox="0 0 800 500" width="100%" height="100%" role="img">
  <rect width="800" height="500" fill="#F4EFE8"/>
  <path d="M520 66 C648 84 724 188 706 292 C688 396 566 452 438 442 C310 432 218 358 228 250 C238 142 392 48 520 66 Z" fill="#CBD6CF"/>
  <g transform="rotate(-10 205 152)">
    <rect x="170" y="110" width="70" height="84" rx="8" fill="#FBF8F3"/>
    <rect x="180" y="120" width="50" height="48" rx="4" fill="#C9B89A"/>
  </g>
  <g transform="rotate(8 195 66)">
    <rect x="160" y="24" width="70" height="84" rx="8" fill="#FBF8F3"/>
    <rect x="170" y="34" width="50" height="48" rx="4" fill="#B9C6BF"/>
  </g>
  <circle cx="340" cy="182" r="30" fill="#C68B6A"/>
  <path d="M310 180 a31 31 0 0 1 62 0 z" fill="#FBF8F3" transform="rotate(-6 340 180)"/>
  <rect x="292" y="214" width="96" height="112" rx="43" fill="#B9C6BF"/>
  <circle cx="462" cy="176" r="30" fill="#8A5A3B"/>
  <path d="M432 174 a31 31 0 0 1 62 0 z" fill="#243530" transform="rotate(6 462 174)"/>
  <rect x="414" y="208" width="96" height="118" rx="43" fill="#3F5E54"/>
  <path d="M300 306 L396 292 L396 398 L300 412 Z" fill="#FBF8F3"/>
  <path d="M404 292 L500 306 L500 412 L404 398 Z" fill="#FBF8F3"/>
  <g transform="rotate(-6 338 336)">
    <rect x="316" y="318" width="44" height="36" rx="3" fill="#C9B89A"/>
  </g>
  <rect x="316" y="370" width="60" height="6" rx="3" fill="#EAE2D4"/>
  <rect x="316" y="382" width="44" height="6" rx="3" fill="#EAE2D4"/>
  <g transform="rotate(6 448 331)">
    <rect x="428" y="314" width="40" height="34" rx="3" fill="#B9C6BF"/>
  </g>
  <rect x="428" y="366" width="56" height="6" rx="3" fill="#EAE2D4"/>
  <rect x="428" y="378" width="40" height="6" rx="3" fill="#EAE2D4"/>
  <g transform="translate(650 440)">
    <path d="M0 0 C -4 -30 -20 -48 -38 -60" fill="none" stroke="#335047" stroke-width="5" stroke-linecap="round"/>
    <ellipse cx="-42" cy="-64" rx="20" ry="11" transform="rotate(-35 -42 -64)" fill="#3F5E54"/>
    <path d="M0 0 C 0 -40 2 -60 4 -78" fill="none" stroke="#335047" stroke-width="5" stroke-linecap="round"/>
    <ellipse cx="5" cy="-86" rx="11" ry="20" fill="#3F5E54"/>
    <path d="M0 0 C 4 -26 18 -42 34 -52" fill="none" stroke="#335047" stroke-width="5" stroke-linecap="round"/>
    <ellipse cx="38" cy="-56" rx="18" ry="10" transform="rotate(32 38 -56)" fill="#B9C6BF"/>
    <path d="M-26 0 h52 l-8 44 a10 10 0 0 1 -10 9 h-16 a10 10 0 0 1 -10 -9 z" fill="#C68B6A"/>
    <rect x="-30" y="-4" width="60" height="12" rx="6" fill="#8A5A3B"/>
  </g>
</svg>
